  <svg
              xmlns="http://www.w3.org/2000/svg"
              width="137"
              height="32"
              fill="none"
              viewBox="0 0 137 32"
            >             
              <circle cx="16" cy="16" r="16" fill="url(#a)" />
              <path
                fill="#fff"
                d="M16.384 21.192c2.352 0 3.76-1.408 3.76-3.104 0-1.52-.88-2.304-2.112-2.832l-1.424-.592c-.864-.352-1.664-.656-1.664-1.472 0-.768.656-1.232 1.648-1.232.896 0 1.6.336 2.272.896l.944-1.184a4.62 4.62 0 0 0-3.216-1.328c-2.048 0-3.52 1.28-3.52 2.944 0 1.536 1.088 2.352 2.112 2.784l1.44.624c.944.4 1.616.672 1.616 1.536 0 .816-.64 1.344-1.824 1.344-.96 0-1.968-.48-2.72-1.184l-1.088 1.264a5.42 5.42 0 0 0 3.776 1.536z"
              />
              <defs>
                <linearGradient
                  id="a"
                  x1="16"
                  x2="16"
                  y2="32"
                  gradientUnits="userSpaceOnUse"
                >
                  <stop stop-color="#13244E" />
                  <stop offset="1" stop-color="#75C5F0" />
                </linearGradient>
              </defs>
            </svg>
